<svg xmlns="http://www.w3.org/2000/svg" xmlns:xlink="http://www.w3.org/1999/xlink" width="134" zoomAndPan="magnify" viewBox="58 8 134 134" height="134" preserveAspectRatio="xMidYMid meet" version="1.0"><defs><clipPath id="0c311e4b09"><path d="M 0.90625 0 L 510.597656 0 L 510.597656 148.503906 L 0.90625 148.503906 Z M 0.90625 0 " clip-rule="nonzero"/></clipPath><clipPath id="3b4c2d957e"><path d="M 61.691406 61 L 137 61 L 137 136.457031 L 61.691406 136.457031 Z M 61.691406 61 " clip-rule="nonzero"/></clipPath><clipPath id="61467b57f3"><path d="M 111 11.929688 L 187 11.929688 L 187 87 L 111 87 Z M 111 11.929688 " clip-rule="nonzero"/></clipPath><clipPath id="1f7540078e"><path d="M 111 61 L 187 61 L 187 136.457031 L 111 136.457031 Z M 111 61 " clip-rule="nonzero"/></clipPath><clipPath id="4a889d7f1c"><path d="M 61.691406 11.929688 L 137 11.929688 L 137 87 L 61.691406 87 Z M 61.691406 11.929688 " clip-rule="nonzero"/></clipPath></defs><g clip-path="url(#3b4c2d957e)"><path fill="#abcbf8" d="M 136.328125 99.195312 C 136.328125 100.414062 136.269531 101.632812 136.148438 102.847656 C 136.03125 104.0625 135.851562 105.265625 135.613281 106.464844 C 135.375 107.660156 135.078125 108.84375 134.722656 110.011719 C 134.367188 111.179688 133.957031 112.328125 133.488281 113.453125 C 133.019531 114.582031 132.5 115.683594 131.921875 116.761719 C 131.347656 117.835938 130.71875 118.882812 130.039062 119.894531 C 129.363281 120.910156 128.632812 121.890625 127.859375 122.832031 C 127.082031 123.777344 126.265625 124.679688 125.398438 125.542969 C 124.535156 126.40625 123.632812 127.222656 122.6875 128 C 121.742188 128.773438 120.761719 129.5 119.746094 130.175781 C 118.730469 130.855469 117.683594 131.480469 116.605469 132.058594 C 115.527344 132.632812 114.421875 133.152344 113.292969 133.621094 C 112.164062 134.085938 111.015625 134.496094 109.847656 134.851562 C 108.675781 135.207031 107.492188 135.503906 106.292969 135.742188 C 105.09375 135.980469 103.886719 136.15625 102.671875 136.277344 C 101.457031 136.398438 100.238281 136.457031 99.015625 136.457031 C 97.792969 136.457031 96.574219 136.398438 95.355469 136.277344 C 94.140625 136.15625 92.933594 135.980469 91.734375 135.742188 C 90.535156 135.503906 89.351562 135.207031 88.183594 134.851562 C 87.011719 134.496094 85.863281 134.085938 84.734375 133.621094 C 83.605469 133.152344 82.503906 132.632812 81.425781 132.058594 C 80.347656 131.480469 79.300781 130.855469 78.285156 130.175781 C 77.269531 129.5 76.289062 128.773438 75.34375 128 C 74.398438 127.222656 73.492188 126.40625 72.628906 125.542969 C 71.765625 124.679688 70.945312 123.777344 70.171875 122.832031 C 69.394531 121.890625 68.667969 120.910156 67.988281 119.894531 C 67.308594 118.882812 66.683594 117.835938 66.105469 116.761719 C 65.53125 115.683594 65.007812 114.582031 64.539062 113.453125 C 64.074219 112.328125 63.660156 111.179688 63.308594 110.011719 C 62.953125 108.84375 62.65625 107.660156 62.417969 106.464844 C 62.179688 105.265625 62 104.0625 61.878906 102.847656 C 61.761719 101.632812 61.699219 100.414062 61.699219 99.195312 C 61.699219 97.972656 61.761719 96.757812 61.878906 95.542969 C 62 94.328125 62.179688 93.121094 62.417969 91.925781 C 62.65625 90.726562 62.953125 89.546875 63.308594 88.378906 C 63.660156 87.210938 64.074219 86.0625 64.539062 84.933594 C 65.007812 83.808594 65.53125 82.707031 66.105469 81.628906 C 66.683594 80.554688 67.308594 79.507812 67.988281 78.492188 C 68.667969 77.476562 69.394531 76.5 70.171875 75.554688 C 70.945312 74.613281 71.765625 73.710938 72.628906 72.847656 C 73.492188 71.984375 74.398438 71.164062 75.34375 70.390625 C 76.289062 69.617188 77.269531 68.890625 78.285156 68.210938 C 79.300781 67.535156 80.347656 66.90625 81.425781 66.332031 C 82.503906 65.757812 83.605469 65.234375 84.734375 64.769531 C 85.863281 64.300781 87.011719 63.890625 88.183594 63.539062 C 89.351562 63.183594 90.535156 62.886719 91.734375 62.648438 C 92.933594 62.410156 94.140625 62.230469 95.355469 62.113281 C 96.574219 61.992188 97.792969 61.933594 99.015625 61.933594 C 100.238281 61.933594 101.457031 61.992188 102.671875 62.113281 C 103.886719 62.230469 105.09375 62.410156 106.292969 62.648438 C 107.492188 62.886719 108.675781 63.183594 109.847656 63.539062 C 111.015625 63.890625 112.164062 64.300781 113.292969 64.769531 C 114.421875 65.234375 115.527344 65.757812 116.605469 66.332031 C 117.683594 66.90625 118.730469 67.535156 119.746094 68.210938 C 120.761719 68.890625 121.742188 69.617188 122.6875 70.390625 C 123.632812 71.164062 124.535156 71.984375 125.398438 72.847656 C 126.265625 73.710938 127.082031 74.613281 127.859375 75.554688 C 128.632812 76.5 129.363281 77.476562 130.039062 78.492188 C 130.71875 79.507812 131.347656 80.554688 131.921875 81.628906 C 132.5 82.707031 133.019531 83.808594 133.488281 84.933594 C 133.957031 86.0625 134.367188 87.210938 134.722656 88.378906 C 135.078125 89.546875 135.375 90.726562 135.613281 91.925781 C 135.851562 93.121094 136.03125 94.328125 136.148438 95.542969 C 136.269531 96.757812 136.328125 97.972656 136.328125 99.195312 Z M 136.328125 99.195312 " fill-opacity="0.66" fill-rule="nonzero"/></g><g clip-path="url(#61467b57f3)"><path fill="#0a3bfe" d="M 186.5 49.09375 C 186.5 50.316406 186.441406 51.53125 186.320312 52.746094 C 186.199219 53.960938 186.019531 55.167969 185.78125 56.363281 C 185.542969 57.5625 185.246094 58.742188 184.894531 59.910156 C 184.539062 61.078125 184.128906 62.226562 183.660156 63.355469 C 183.191406 64.480469 182.667969 65.582031 182.09375 66.660156 C 181.519531 67.734375 180.890625 68.78125 180.210938 69.796875 C 179.53125 70.8125 178.804688 71.789062 178.03125 72.734375 C 177.253906 73.675781 176.433594 74.578125 175.570312 75.441406 C 174.707031 76.304688 173.800781 77.125 172.855469 77.898438 C 171.914062 78.671875 170.933594 79.398438 169.917969 80.078125 C 168.898438 80.753906 167.851562 81.382812 166.773438 81.957031 C 165.699219 82.53125 164.59375 83.054688 163.464844 83.519531 C 162.335938 83.988281 161.1875 84.398438 160.015625 84.753906 C 158.847656 85.105469 157.664062 85.402344 156.464844 85.640625 C 155.265625 85.878906 154.058594 86.058594 152.84375 86.175781 C 151.625 86.296875 150.40625 86.355469 149.183594 86.355469 C 147.964844 86.355469 146.742188 86.296875 145.527344 86.175781 C 144.3125 86.058594 143.105469 85.878906 141.90625 85.640625 C 140.707031 85.402344 139.523438 85.105469 138.351562 84.753906 C 137.183594 84.398438 136.035156 83.988281 134.90625 83.519531 C 133.777344 83.054688 132.671875 82.53125 131.59375 81.957031 C 130.515625 81.382812 129.46875 80.753906 128.453125 80.078125 C 127.4375 79.398438 126.457031 78.671875 125.511719 77.898438 C 124.570312 77.125 123.664062 76.304688 122.800781 75.441406 C 121.9375 74.578125 121.117188 73.675781 120.339844 72.734375 C 119.566406 71.789062 118.839844 70.8125 118.160156 69.796875 C 117.480469 68.78125 116.851562 67.734375 116.277344 66.660156 C 115.699219 65.582031 115.179688 64.480469 114.710938 63.355469 C 114.242188 62.226562 113.832031 61.078125 113.476562 59.910156 C 113.121094 58.742188 112.828125 57.5625 112.585938 56.363281 C 112.347656 55.167969 112.171875 53.960938 112.050781 52.746094 C 111.929688 51.53125 111.871094 50.316406 111.871094 49.09375 C 111.871094 47.875 111.929688 46.65625 112.050781 45.441406 C 112.171875 44.226562 112.347656 43.023438 112.585938 41.824219 C 112.828125 40.628906 113.121094 39.445312 113.476562 38.277344 C 113.832031 37.109375 114.242188 35.960938 114.710938 34.835938 C 115.179688 33.707031 115.699219 32.605469 116.277344 31.53125 C 116.851562 30.453125 117.480469 29.40625 118.160156 28.394531 C 118.839844 27.378906 119.566406 26.398438 120.339844 25.457031 C 121.117188 24.511719 121.9375 23.609375 122.800781 22.746094 C 123.664062 21.882812 124.570312 21.066406 125.511719 20.289062 C 126.457031 19.515625 127.4375 18.789062 128.453125 18.113281 C 129.46875 17.433594 130.515625 16.808594 131.59375 16.234375 C 132.671875 15.65625 133.777344 15.136719 134.90625 14.667969 C 136.035156 14.203125 137.183594 13.792969 138.351562 13.4375 C 139.523438 13.082031 140.707031 12.785156 141.90625 12.546875 C 143.105469 12.3125 144.3125 12.132812 145.527344 12.011719 C 146.742188 11.894531 147.964844 11.832031 149.183594 11.832031 C 150.40625 11.832031 151.625 11.894531 152.84375 12.011719 C 154.058594 12.132812 155.265625 12.3125 156.464844 12.546875 C 157.664062 12.785156 158.847656 13.082031 160.015625 13.4375 C 161.1875 13.792969 162.335938 14.203125 163.464844 14.667969 C 164.59375 15.136719 165.699219 15.65625 166.773438 16.234375 C 167.851562 16.808594 168.898438 17.433594 169.917969 18.113281 C 170.933594 18.789062 171.914062 19.515625 172.855469 20.289062 C 173.800781 21.066406 174.707031 21.882812 175.570312 22.746094 C 176.433594 23.609375 177.253906 24.511719 178.03125 25.457031 C 178.804688 26.398438 179.53125 27.378906 180.210938 28.394531 C 180.890625 29.40625 181.519531 30.453125 182.09375 31.53125 C 182.667969 32.605469 183.191406 33.707031 183.660156 34.835938 C 184.128906 35.960938 184.539062 37.109375 184.894531 38.277344 C 185.246094 39.445312 185.542969 40.628906 185.78125 41.824219 C 186.019531 43.023438 186.199219 44.226562 186.320312 45.441406 C 186.441406 46.65625 186.5 47.875 186.5 49.09375 Z M 186.5 49.09375 " fill-opacity="0.78" fill-rule="nonzero"/></g><g clip-path="url(#1f7540078e)"><path fill="#5e8ee7" d="M 186.5 99.195312 C 186.5 100.414062 186.441406 101.632812 186.320312 102.847656 C 186.199219 104.0625 186.019531 105.265625 185.78125 106.464844 C 185.542969 107.660156 185.246094 108.84375 184.894531 110.011719 C 184.539062 111.179688 184.128906 112.328125 183.660156 113.453125 C 183.191406 114.582031 182.667969 115.683594 182.09375 116.761719 C 181.519531 117.835938 180.890625 118.882812 180.210938 119.894531 C 179.53125 120.910156 178.804688 121.890625 178.03125 122.832031 C 177.253906 123.777344 176.433594 124.679688 175.570312 125.542969 C 174.707031 126.40625 173.800781 127.222656 172.855469 128 C 171.914062 128.773438 170.933594 129.5 169.917969 130.175781 C 168.898438 130.855469 167.851562 131.480469 166.773438 132.058594 C 165.699219 132.632812 164.59375 133.152344 163.464844 133.621094 C 162.335938 134.085938 161.1875 134.496094 160.015625 134.851562 C 158.847656 135.207031 157.664062 135.503906 156.464844 135.742188 C 155.265625 135.980469 154.058594 136.15625 152.84375 136.277344 C 151.625 136.398438 150.40625 136.457031 149.183594 136.457031 C 147.964844 136.457031 146.742188 136.398438 145.527344 136.277344 C 144.3125 136.15625 143.105469 135.980469 141.90625 135.742188 C 140.707031 135.503906 139.523438 135.207031 138.351562 134.851562 C 137.183594 134.496094 136.035156 134.085938 134.90625 133.621094 C 133.777344 133.152344 132.671875 132.632812 131.59375 132.058594 C 130.515625 131.480469 129.46875 130.855469 128.453125 130.175781 C 127.4375 129.5 126.457031 128.773438 125.511719 128 C 124.570312 127.222656 123.664062 126.40625 122.800781 125.542969 C 121.9375 124.679688 121.117188 123.777344 120.339844 122.832031 C 119.566406 121.890625 118.839844 120.910156 118.160156 119.894531 C 117.480469 118.882812 116.851562 117.835938 116.277344 116.761719 C 115.699219 115.683594 115.179688 114.582031 114.710938 113.453125 C 114.242188 112.328125 113.832031 111.179688 113.476562 110.011719 C 113.121094 108.84375 112.828125 107.660156 112.585938 106.464844 C 112.347656 105.265625 112.171875 104.0625 112.050781 102.847656 C 111.929688 101.632812 111.871094 100.414062 111.871094 99.195312 C 111.871094 97.972656 111.929688 96.757812 112.050781 95.542969 C 112.171875 94.328125 112.347656 93.121094 112.585938 91.925781 C 112.828125 90.726562 113.121094 89.546875 113.476562 88.378906 C 113.832031 87.210938 114.242188 86.0625 114.710938 84.933594 C 115.179688 83.808594 115.699219 82.707031 116.277344 81.628906 C 116.851562 80.554688 117.480469 79.507812 118.160156 78.492188 C 118.839844 77.476562 119.566406 76.5 120.339844 75.554688 C 121.117188 74.613281 121.9375 73.710938 122.800781 72.847656 C 123.664062 71.984375 124.570312 71.164062 125.511719 70.390625 C 126.457031 69.617188 127.4375 68.890625 128.453125 68.210938 C 129.46875 67.535156 130.515625 66.90625 131.59375 66.332031 C 132.671875 65.757812 133.777344 65.234375 134.90625 64.769531 C 136.035156 64.300781 137.183594 63.890625 138.351562 63.539062 C 139.523438 63.183594 140.707031 62.886719 141.90625 62.648438 C 143.105469 62.410156 144.3125 62.230469 145.527344 62.113281 C 146.742188 61.992188 147.964844 61.933594 149.183594 61.933594 C 150.40625 61.933594 151.625 61.992188 152.84375 62.113281 C 154.058594 62.230469 155.265625 62.410156 156.464844 62.648438 C 157.664062 62.886719 158.847656 63.183594 160.015625 63.539062 C 161.1875 63.890625 162.335938 64.300781 163.464844 64.769531 C 164.59375 65.234375 165.699219 65.757812 166.773438 66.332031 C 167.851562 66.90625 168.898438 67.535156 169.917969 68.210938 C 170.933594 68.890625 171.914062 69.617188 172.855469 70.390625 C 173.800781 71.164062 174.707031 71.984375 175.570312 72.847656 C 176.433594 73.710938 177.253906 74.613281 178.03125 75.554688 C 178.804688 76.5 179.53125 77.476562 180.210938 78.492188 C 180.890625 79.507812 181.519531 80.554688 182.09375 81.628906 C 182.667969 82.707031 183.191406 83.808594 183.660156 84.933594 C 184.128906 86.0625 184.539062 87.210938 184.894531 88.378906 C 185.246094 89.546875 185.542969 90.726562 185.78125 91.925781 C 186.019531 93.121094 186.199219 94.328125 186.320312 95.542969 C 186.441406 96.757812 186.5 97.972656 186.5 99.195312 Z M 186.5 99.195312 " fill-opacity="0.6" fill-rule="nonzero"/></g><g clip-path="url(#4a889d7f1c)"><path fill="#142692" d="M 136.328125 49.09375 C 136.328125 50.316406 136.269531 51.53125 136.148438 52.746094 C 136.03125 53.960938 135.851562 55.167969 135.613281 56.363281 C 135.375 57.5625 135.078125 58.742188 134.722656 59.910156 C 134.367188 61.078125 133.957031 62.226562 133.488281 63.355469 C 133.019531 64.480469 132.5 65.582031 131.921875 66.660156 C 131.347656 67.734375 130.71875 68.78125 130.039062 69.796875 C 129.363281 70.8125 128.632812 71.789062 127.859375 72.734375 C 127.082031 73.675781 126.265625 74.578125 125.398438 75.441406 C 124.535156 76.304688 123.632812 77.125 122.6875 77.898438 C 121.742188 78.671875 120.761719 79.398438 119.746094 80.078125 C 118.730469 80.753906 117.683594 81.382812 116.605469 81.957031 C 115.527344 82.53125 114.421875 83.054688 113.292969 83.519531 C 112.164062 83.988281 111.015625 84.398438 109.847656 84.753906 C 108.675781 85.105469 107.492188 85.402344 106.292969 85.640625 C 105.09375 85.878906 103.886719 86.058594 102.671875 86.175781 C 101.457031 86.296875 100.238281 86.355469 99.015625 86.355469 C 97.792969 86.355469 96.574219 86.296875 95.355469 86.175781 C 94.140625 86.058594 92.933594 85.878906 91.734375 85.640625 C 90.535156 85.402344 89.351562 85.105469 88.183594 84.753906 C 87.011719 84.398438 85.863281 83.988281 84.734375 83.519531 C 83.605469 83.054688 82.503906 82.53125 81.425781 81.957031 C 80.347656 81.382812 79.300781 80.753906 78.285156 80.078125 C 77.269531 79.398438 76.289062 78.671875 75.34375 77.898438 C 74.398438 77.125 73.492188 76.304688 72.628906 75.441406 C 71.765625 74.578125 70.945312 73.675781 70.171875 72.734375 C 69.394531 71.789062 68.667969 70.8125 67.988281 69.796875 C 67.308594 68.78125 66.683594 67.734375 66.105469 66.660156 C 65.53125 65.582031 65.007812 64.480469 64.539062 63.355469 C 64.074219 62.226562 63.660156 61.078125 63.308594 59.910156 C 62.953125 58.742188 62.65625 57.5625 62.417969 56.363281 C 62.179688 55.167969 62 53.960938 61.878906 52.746094 C 61.761719 51.53125 61.699219 50.316406 61.699219 49.09375 C 61.699219 47.875 61.761719 46.65625 61.878906 45.441406 C 62 44.226562 62.179688 43.023438 62.417969 41.824219 C 62.65625 40.628906 62.953125 39.445312 63.308594 38.277344 C 63.660156 37.109375 64.074219 35.960938 64.539062 34.835938 C 65.007812 33.707031 65.53125 32.605469 66.105469 31.53125 C 66.683594 30.453125 67.308594 29.40625 67.988281 28.394531 C 68.667969 27.378906 69.394531 26.398438 70.171875 25.457031 C 70.945312 24.511719 71.765625 23.609375 72.628906 22.746094 C 73.492188 21.882812 74.398438 21.066406 75.34375 20.289062 C 76.289062 19.515625 77.269531 18.789062 78.285156 18.113281 C 79.300781 17.433594 80.347656 16.808594 81.425781 16.234375 C 82.503906 15.65625 83.605469 15.136719 84.734375 14.667969 C 85.863281 14.203125 87.011719 13.792969 88.183594 13.4375 C 89.351562 13.082031 90.535156 12.785156 91.734375 12.546875 C 92.933594 12.3125 94.140625 12.132812 95.355469 12.011719 C 96.574219 11.894531 97.792969 11.832031 99.015625 11.832031 C 100.238281 11.832031 101.457031 11.894531 102.671875 12.011719 C 103.886719 12.132812 105.09375 12.3125 106.292969 12.546875 C 107.492188 12.785156 108.675781 13.082031 109.847656 13.4375 C 111.015625 13.792969 112.164062 14.203125 113.292969 14.667969 C 114.421875 15.136719 115.527344 15.65625 116.605469 16.234375 C 117.683594 16.808594 118.730469 17.433594 119.746094 18.113281 C 120.761719 18.789062 121.742188 19.515625 122.6875 20.289062 C 123.632812 21.066406 124.535156 21.882812 125.398438 22.746094 C 126.265625 23.609375 127.082031 24.511719 127.859375 25.457031 C 128.632812 26.398438 129.363281 27.378906 130.039062 28.394531 C 130.71875 29.40625 131.347656 30.453125 131.921875 31.53125 C 132.5 32.605469 133.019531 33.707031 133.488281 34.835938 C 133.957031 35.960938 134.367188 37.109375 134.722656 38.277344 C 135.078125 39.445312 135.375 40.628906 135.613281 41.824219 C 135.851562 43.023438 136.03125 44.226562 136.148438 45.441406 C 136.269531 46.65625 136.328125 47.875 136.328125 49.09375 Z M 136.328125 49.09375 " fill-opacity="0.82" fill-rule="nonzero"/></g></svg>